%TF.GenerationSoftware,KiCad,Pcbnew,7.0.2*%
%TF.CreationDate,2023-09-05T13:08:04-04:00*%
%TF.ProjectId,ps1_pic_adapt,7073315f-7069-4635-9f61-646170742e6b,rev?*%
%TF.SameCoordinates,Original*%
%TF.FileFunction,Legend,Bot*%
%TF.FilePolarity,Positive*%
%FSLAX46Y46*%
G04 Gerber Fmt 4.6, Leading zero omitted, Abs format (unit mm)*
G04 Created by KiCad (PCBNEW 7.0.2) date 2023-09-05 13:08:04*
%MOMM*%
%LPD*%
G01*
G04 APERTURE LIST*
G04 APERTURE END LIST*
%TO.C,G\u002A\u002A\u002A*%
G36*
X171856449Y-99071464D02*
G01*
X171850752Y-99143947D01*
X171842110Y-99201784D01*
X171830074Y-99250863D01*
X171787618Y-99361800D01*
X171726866Y-99458284D01*
X171647615Y-99540469D01*
X171549662Y-99608506D01*
X171432803Y-99662550D01*
X171296835Y-99702753D01*
X171141555Y-99729268D01*
X171085245Y-99734205D01*
X171000760Y-99737611D01*
X170905240Y-99738222D01*
X170804473Y-99736236D01*
X170704246Y-99731848D01*
X170610349Y-99725256D01*
X170528570Y-99716656D01*
X170464696Y-99706246D01*
X170329015Y-99668320D01*
X170211222Y-99615643D01*
X170111981Y-99548204D01*
X170031146Y-99465820D01*
X169968570Y-99368308D01*
X169924110Y-99255484D01*
X169897618Y-99127166D01*
X169889296Y-98988947D01*
X170613130Y-98988947D01*
X170613252Y-99001611D01*
X170623128Y-99094994D01*
X170648548Y-99171975D01*
X170689130Y-99231724D01*
X170744492Y-99273415D01*
X170780054Y-99286480D01*
X170838806Y-99295922D01*
X170901012Y-99295832D01*
X170955990Y-99285593D01*
X171004779Y-99264011D01*
X171055148Y-99222118D01*
X171090345Y-99163883D01*
X171110981Y-99088203D01*
X171117666Y-98993976D01*
X171116604Y-98941734D01*
X171112339Y-98902584D01*
X171103323Y-98871420D01*
X171088007Y-98840212D01*
X171056573Y-98795718D01*
X171015780Y-98763893D01*
X170962122Y-98744593D01*
X170890742Y-98735232D01*
X170819949Y-98735869D01*
X170745735Y-98752210D01*
X170687855Y-98785770D01*
X170646401Y-98836468D01*
X170621463Y-98904221D01*
X170613130Y-98988947D01*
X169889296Y-98988947D01*
X169888948Y-98983171D01*
X169889259Y-98951291D01*
X169895012Y-98851447D01*
X169909088Y-98766008D01*
X169932880Y-98688407D01*
X169967783Y-98612080D01*
X170014354Y-98539944D01*
X170088785Y-98460236D01*
X170179282Y-98391788D01*
X170282089Y-98337357D01*
X170393448Y-98299701D01*
X170458168Y-98286198D01*
X170569950Y-98270988D01*
X170695392Y-98261577D01*
X170828897Y-98257956D01*
X170964863Y-98260117D01*
X171097694Y-98268051D01*
X171221789Y-98281748D01*
X171331550Y-98301200D01*
X171365827Y-98309523D01*
X171486813Y-98351828D01*
X171593521Y-98410321D01*
X171684419Y-98483586D01*
X171757977Y-98570206D01*
X171812664Y-98668765D01*
X171846948Y-98777847D01*
X171848106Y-98783781D01*
X171855032Y-98840493D01*
X171858674Y-98912302D01*
X171859118Y-98991771D01*
X171859044Y-98993976D01*
X171856449Y-99071464D01*
G37*
G36*
X166158662Y-98308212D02*
G01*
X166455099Y-98572424D01*
X166456040Y-98717889D01*
X166456982Y-98863355D01*
X166338235Y-98863355D01*
X166219488Y-98863355D01*
X166219488Y-99135888D01*
X166219383Y-99171531D01*
X166218387Y-99252109D01*
X166216473Y-99326308D01*
X166213807Y-99389786D01*
X166210554Y-99438202D01*
X166206880Y-99467212D01*
X166189654Y-99523851D01*
X166149896Y-99592256D01*
X166091829Y-99646357D01*
X166014913Y-99686615D01*
X165918611Y-99713491D01*
X165892589Y-99717546D01*
X165827663Y-99723180D01*
X165747793Y-99725951D01*
X165657278Y-99726079D01*
X165560415Y-99723780D01*
X165461500Y-99719274D01*
X165364832Y-99712777D01*
X165274707Y-99704509D01*
X165195422Y-99694688D01*
X165131276Y-99683531D01*
X165086564Y-99671257D01*
X165079207Y-99667424D01*
X165068780Y-99656370D01*
X165058460Y-99636071D01*
X165046908Y-99603050D01*
X165032781Y-99553827D01*
X165014738Y-99484922D01*
X165006436Y-99452579D01*
X164991291Y-99394134D01*
X164978575Y-99345779D01*
X164969427Y-99311823D01*
X164964985Y-99296576D01*
X164971116Y-99292090D01*
X165000075Y-99288779D01*
X165052533Y-99287752D01*
X165128412Y-99289012D01*
X165177042Y-99289982D01*
X165255387Y-99289105D01*
X165314326Y-99284165D01*
X165356575Y-99274676D01*
X165384849Y-99260154D01*
X165401863Y-99240113D01*
X165403162Y-99237085D01*
X165408810Y-99210513D01*
X165414033Y-99165630D01*
X165418402Y-99106869D01*
X165421483Y-99038661D01*
X165427110Y-98863355D01*
X165146441Y-98863355D01*
X164865771Y-98863355D01*
X164865771Y-98584299D01*
X164865771Y-98305243D01*
X165144827Y-98305243D01*
X165423883Y-98305243D01*
X165423883Y-98174621D01*
X165423883Y-98044000D01*
X165643054Y-98044000D01*
X165862225Y-98044000D01*
X166158662Y-98308212D01*
G37*
G36*
X174270540Y-99694584D02*
G01*
X173807426Y-99694584D01*
X173344313Y-99694584D01*
X173344313Y-99504589D01*
X173344313Y-99314593D01*
X173067914Y-99314593D01*
X173059140Y-99314590D01*
X172923172Y-99313399D01*
X172807393Y-99309735D01*
X172708520Y-99303112D01*
X172623267Y-99293041D01*
X172548351Y-99279037D01*
X172480486Y-99260612D01*
X172416389Y-99237280D01*
X172352775Y-99208552D01*
X172276403Y-99164387D01*
X172185550Y-99089061D01*
X172111877Y-98998010D01*
X172056451Y-98892624D01*
X172020335Y-98774294D01*
X172008562Y-98689595D01*
X172834133Y-98689595D01*
X172846918Y-98746522D01*
X172877359Y-98796297D01*
X172923849Y-98833068D01*
X172938084Y-98839874D01*
X172960873Y-98847606D01*
X172989780Y-98853092D01*
X173029213Y-98856867D01*
X173083579Y-98859468D01*
X173157286Y-98861429D01*
X173344313Y-98865441D01*
X173344313Y-98692215D01*
X173344313Y-98518988D01*
X173153936Y-98518988D01*
X173096728Y-98519309D01*
X173023611Y-98521512D01*
X172968480Y-98526553D01*
X172927832Y-98535302D01*
X172898163Y-98548629D01*
X172875972Y-98567402D01*
X172857754Y-98592490D01*
X172840611Y-98631365D01*
X172834133Y-98689595D01*
X172008562Y-98689595D01*
X172005079Y-98664533D01*
X172006625Y-98547456D01*
X172026795Y-98437901D01*
X172064683Y-98338185D01*
X172119383Y-98250629D01*
X172189987Y-98177552D01*
X172275589Y-98121273D01*
X172288346Y-98114766D01*
X172312767Y-98102390D01*
X172335357Y-98091714D01*
X172357946Y-98082604D01*
X172382359Y-98074926D01*
X172410423Y-98068547D01*
X172443966Y-98063333D01*
X172484814Y-98059150D01*
X172534795Y-98055864D01*
X172595736Y-98053343D01*
X172669463Y-98051452D01*
X172757804Y-98050057D01*
X172862586Y-98049025D01*
X172985635Y-98048223D01*
X173128779Y-98047516D01*
X173293845Y-98046771D01*
X174128044Y-98042952D01*
X174128044Y-97942541D01*
X174128044Y-97842130D01*
X173742116Y-97842130D01*
X173356188Y-97842130D01*
X173356188Y-97586823D01*
X173356188Y-97331517D01*
X173142443Y-97331517D01*
X172928698Y-97331517D01*
X172928698Y-97586823D01*
X172928698Y-97842130D01*
X172507146Y-97842130D01*
X172085594Y-97842130D01*
X172085594Y-97016837D01*
X172085594Y-96191545D01*
X172507146Y-96191545D01*
X172928698Y-96191545D01*
X172928698Y-96482476D01*
X172928698Y-96773406D01*
X173142443Y-96773406D01*
X173356188Y-96773406D01*
X173356188Y-96482476D01*
X173356188Y-96191545D01*
X173813364Y-96191545D01*
X174270540Y-96191545D01*
X174270540Y-97943065D01*
X174270540Y-98518988D01*
X174270540Y-99694584D01*
G37*
G36*
X169675028Y-98987708D02*
G01*
X169675028Y-99694584D01*
X169271288Y-99694584D01*
X168867548Y-99694584D01*
X168867548Y-98987708D01*
X168867548Y-98280832D01*
X168947702Y-98290069D01*
X168955573Y-98290893D01*
X169004806Y-98294178D01*
X169071506Y-98296619D01*
X169150523Y-98298215D01*
X169236708Y-98298968D01*
X169324908Y-98298876D01*
X169409976Y-98297941D01*
X169486759Y-98296161D01*
X169550109Y-98293537D01*
X169594874Y-98290069D01*
X169675028Y-98280832D01*
X169675028Y-98987708D01*
G37*
G36*
X167267976Y-98276109D02*
G01*
X167374189Y-98281415D01*
X167463147Y-98293362D01*
X167538933Y-98313188D01*
X167605632Y-98342130D01*
X167667325Y-98381427D01*
X167728097Y-98432315D01*
X167798824Y-98497797D01*
X167798824Y-98401520D01*
X167798824Y-98305243D01*
X168202564Y-98305243D01*
X168606304Y-98305243D01*
X168606304Y-98999914D01*
X168606304Y-99694584D01*
X168202564Y-99694584D01*
X167798824Y-99694584D01*
X167798806Y-99329437D01*
X167798697Y-99233216D01*
X167798069Y-99140761D01*
X167796502Y-99067162D01*
X167793581Y-99009784D01*
X167788888Y-98965994D01*
X167782005Y-98933155D01*
X167772514Y-98908634D01*
X167760000Y-98889796D01*
X167744043Y-98874006D01*
X167724228Y-98858628D01*
X167696094Y-98844667D01*
X167646502Y-98832939D01*
X167589434Y-98828449D01*
X167533528Y-98831754D01*
X167487422Y-98843408D01*
X167482926Y-98845302D01*
X167461484Y-98855410D01*
X167444145Y-98867240D01*
X167430446Y-98883239D01*
X167419922Y-98905854D01*
X167412108Y-98937535D01*
X167406540Y-98980726D01*
X167402753Y-99037878D01*
X167400283Y-99111436D01*
X167398665Y-99203848D01*
X167397436Y-99317562D01*
X167393850Y-99694584D01*
X166996085Y-99694584D01*
X166598321Y-99694584D01*
X166602258Y-99175066D01*
X166603105Y-99070967D01*
X166604216Y-98960992D01*
X166605479Y-98870627D01*
X166606991Y-98797577D01*
X166608850Y-98739544D01*
X166611151Y-98694234D01*
X166613992Y-98659352D01*
X166617469Y-98632601D01*
X166621679Y-98611686D01*
X166626718Y-98594310D01*
X166637394Y-98565683D01*
X166686091Y-98477664D01*
X166753377Y-98403393D01*
X166837738Y-98344293D01*
X166937662Y-98301789D01*
X166959626Y-98295211D01*
X166994552Y-98286765D01*
X167031802Y-98281091D01*
X167076728Y-98277674D01*
X167134685Y-98276000D01*
X167211026Y-98275556D01*
X167267976Y-98276109D01*
G37*
G36*
X169266777Y-97939922D02*
G01*
X169633467Y-97943065D01*
X169636857Y-98072725D01*
X169637665Y-98129013D01*
X169636257Y-98173524D01*
X169632116Y-98200182D01*
X169624983Y-98212071D01*
X169622736Y-98212824D01*
X169600871Y-98215224D01*
X169559270Y-98217382D01*
X169501023Y-98219215D01*
X169429218Y-98220641D01*
X169346945Y-98221577D01*
X169257293Y-98221938D01*
X169255199Y-98221940D01*
X169153053Y-98221847D01*
X169072042Y-98221377D01*
X169009603Y-98220400D01*
X168963171Y-98218790D01*
X168930180Y-98216419D01*
X168908065Y-98213159D01*
X168894263Y-98208882D01*
X168886208Y-98203460D01*
X168877501Y-98184890D01*
X168870768Y-98148618D01*
X168867065Y-98102253D01*
X168866454Y-98052516D01*
X168869001Y-98006128D01*
X168874767Y-97969809D01*
X168883818Y-97950282D01*
X168884896Y-97949561D01*
X168901178Y-97945561D01*
X168934664Y-97942566D01*
X168986661Y-97940540D01*
X169058475Y-97939448D01*
X169151411Y-97939253D01*
X169266777Y-97939922D01*
G37*
G36*
X175374888Y-96482476D02*
G01*
X175374888Y-96773406D01*
X175588633Y-96773406D01*
X175802377Y-96773406D01*
X175802377Y-96482476D01*
X175802377Y-96191545D01*
X176223929Y-96191545D01*
X176645482Y-96191545D01*
X176645482Y-97016837D01*
X176645482Y-97842130D01*
X176223929Y-97842130D01*
X175802377Y-97842130D01*
X175802377Y-97586823D01*
X175802377Y-97331517D01*
X175588633Y-97331517D01*
X175374888Y-97331517D01*
X175374888Y-97586823D01*
X175374888Y-97842130D01*
X174953336Y-97842130D01*
X174531784Y-97842130D01*
X174531784Y-97016837D01*
X174531784Y-96191545D01*
X174953336Y-96191545D01*
X175374888Y-96191545D01*
X175374888Y-96482476D01*
G37*
%TD*%
M02*
